<svg xmlns="http://www.w3.org/2000/svg" xmlns:xlink="http://www.w3.org/1999/xlink" x="0px" y="0px" viewBox="0 0 20 20" style="enable-background:new 0 0 20 20;" xml:space="preserve"><g>	<path d="M9.7,1.6c0.2-0.1,0.5-0.1,0.7,0l9.3,5.3C19.9,7,20,7.3,20,7.5c0,0.2-0.1,0.5-0.3,0.6l-9.3,5.3c-0.2,0.1-0.5,0.1-0.7,0  L0.3,8.1C0.1,8,0,7.7,0,7.5C0,7.3,0.1,7,0.3,6.9L9.7,1.6z M2,7.5l8,4.5l8-4.5L10,3L2,7.5z"></path>	<path d="M3.7,8.5c0.4,0,0.7,0.3,0.7,0.7v4.9l5.6,3l5.6-3V9.2c0-0.4,0.3-0.7,0.7-0.7c0.4,0,0.7,0.3,0.7,0.7v5.3  c0,0.2-0.1,0.5-0.4,0.6l-6.3,3.3c-0.2,0.1-0.5,0.1-0.7,0l-6.3-3.3C3.1,15,3,14.7,3,14.5V9.2C3,8.8,3.3,8.5,3.7,8.5z"></path>	<path d="M19.5,7.5c0.3,0,0.5,0.3,0.5,0.7v7.6c0,0.4-0.2,0.7-0.5,0.7S19,16.2,19,15.8V8.2C19,7.8,19.2,7.5,19.5,7.5z"></path>	<path d="M10,12.5c0.6,0,1,0.3,1,0.6v4.7c0,0.3-0.4,0.6-1,0.6c-0.6,0-1-0.3-1-0.6v-4.7C9,12.8,9.4,12.5,10,12.5z"></path></g></svg>