<svg xmlns="http://www.w3.org/2000/svg" xmlns:xlink="http://www.w3.org/1999/xlink" x="0px" y="0px" viewBox="0 0 38 38" style="enable-background:new 0 0 38 38;" xml:space="preserve"><style type="text/css">	.st0{fill:none;stroke:currentcolor;stroke-width:1.5;stroke-linecap:round;stroke-linejoin:round;}</style><g>	<path class="st0" d="M7.9,10.4h7.5"></path>	<path class="st0" d="M7.9,14.2h7.5"></path>	<path class="st0" d="M7.9,18h7.5"></path>	<path class="st0" d="M7.9,21.7h7.5"></path>	<path class="st0" d="M4.3,6.6h12.9l1.8,1.9v19.1l-1.8-1.9H4.3V6.6z"></path>	<path class="st0" d="M21,6.6l-1.8,1.9"></path>	<path class="st0" d="M19.2,27.5l1.8-1.9"></path>	<path class="st0" d="M21,25.7h12.9V6.6H21"></path>	<path class="st0" d="M33.9,9.6h2.9v19.1H1.2V9.5h3.2"></path>	<path class="st0" d="M22.8,10.4h7.5"></path>	<path class="st0" d="M22.8,14.2h7.5"></path>	<path class="st0" d="M22.8,18h7.5"></path>	<path class="st0" d="M11.5,6c0-1,0.2-2.1,1.2-2.1H25c1,0,1.5,1.1,1.5,2.1"></path>	<path class="st0" d="M26.5,29.2c0,1-0.5,2.1-1.5,2.1H12.7c-1,0-1.2-1.1-1.2-2.1"></path>	<path class="st0" d="M20.8,34.1h-3.6"></path>	<path class="st0" d="M8.6,28.9v5.1c0,1.6,1.3,2.9,2.9,2.9h15c1.6,0,2.9-1.3,2.9-2.9v-4.9"></path>	<path class="st0" d="M29.4,5.9v-2c0-1.6-1.3-2.9-2.9-2.9h-15C9.9,1,8.6,2.3,8.6,3.9v2"></path></g></svg>