<svg xmlns="http://www.w3.org/2000/svg" xmlns:xlink="http://www.w3.org/1999/xlink" x="0px" y="0px" viewBox="0 0 38 38" style="enable-background:new 0 0 38 38;" xml:space="preserve"><style type="text/css">	.st0{fill:none;stroke:currentcolor;stroke-width:1.5;stroke-linecap:round;stroke-linejoin:round;}</style><g>	<path class="st0" d="M12.6,10.8l1.1,1.4l2.2-2.9"></path>	<path class="st0" d="M18.3,11.1h2.3"></path>	<path class="st0" d="M12.6,15.3l1.1,1.4l2.2-2.9"></path>	<path class="st0" d="M18.3,15.6h7.1"></path>	<path class="st0" d="M12.6,19.8l1.1,1.4l2.2-2.9"></path>	<path class="st0" d="M18.3,20.1h7.1"></path>	<path class="st0" d="M29.3,11.6v8.8"></path>	<path class="st0" d="M8.7,20.6V5.8c0-0.6,0.5-1.1,1-1.1h12.6"></path>	<path class="st0" d="M29.3,11.6h-5.8c-0.6,0-1-0.5-1-1.1V4.7L29.3,11.6z"></path>	<path class="st0" d="M8.7,14.5l-3.9,3v15.8h28.3V17.5l-3.9-2.8"></path>	<path class="st0" d="M33.2,18.1L19,29.2L4.8,18.1"></path></g></svg>