<svg xmlns="http://www.w3.org/2000/svg" xmlns:xlink="http://www.w3.org/1999/xlink" x="0px" y="0px" viewBox="0 0 100 100" style="enable-background:new 0 0 100 100;" xml:space="preserve"><g><path class="google-color-1" d="M95,51.1c0-3.1-0.3-6.3-0.8-9.3H50.9v17.7h24.8c-1,5.7-4.3,10.7-9.2,13.9l14.8,11.5C90,76.8,95,65,95,51.1   L95,51.1z"></path><path class="google-color-2" d="M50.9,95.9c12.4,0,22.8-4.1,30.4-11.1L66.5,73.4c-4.1,2.8-9.4,4.4-15.6,4.4c-12,0-22.1-8.1-25.8-18.9L9.9,70.6   C17.7,86.1,33.5,95.9,50.9,95.9z"></path><path class="google-color-3" d="M25.1,58.8c-1.9-5.7-1.9-11.9,0-17.6L9.9,29.4c-6.5,13-6.5,28.3,0,41.2L25.1,58.8z"></path><path class="google-color-4" d="M50.9,22.3c6.5-0.1,12.9,2.4,17.6,6.9L81.6,16C73.3,8.2,62.3,4,50.9,4.1c-17.4,0-33.2,9.8-41,25.3l15.2,11.8   C28.8,30.3,38.9,22.3,50.9,22.3z"></path></g></svg>