<svg xmlns="http://www.w3.org/2000/svg" xmlns:xlink="http://www.w3.org/1999/xlink" x="0px" y="0px" viewBox="0 0 100 100" style="enable-background:new 0 0 100 100;" xml:space="preserve"><style type="text/css">	.sub-icon{fill:none;stroke:currentcolor;stroke-width:4;stroke-linecap:round;stroke-linejoin:round;stroke-miterlimit:10;}</style><g>	<g>		<g>			<g>				<g>					<path class="sub-icon" d="M32.4,82h29.3c2.2,0,4.2-0.8,5.8-2.3l16.9-14.2c1.5-1.5,2.4-3.2,1.7-4.9c-0.6-1.4-2-2.2-3.5-2.1      c-1.6,0.1-3.1,0.9-5.6,2.3l-15.3,8.9"></path>					<path class="sub-icon" d="M37.7,70.9L53,71c2-0.3,3.5-2,3.6-4.1l0,0c0.1-2.4-1.7-4.3-4.1-4.5c-8.2,0-14-3.1-20.2-4.7      c-11.1-1.7-14.4,4.8-15.7,6.7"></path>					<path class="sub-icon" d="M23.8,87.3l-3,3c-1.8,1.8-4.6,1.8-6.4,0L3.8,79.7c-1.8-1.8-1.8-4.6,0-6.4l3-3c1.8-1.8,4.6-1.8,6.4,0      l10.6,10.6C25.6,82.6,25.6,85.5,23.8,87.3z"></path>				</g>			</g>		</g>	</g>	<g>		<g>			<polygon class="sub-icon" points="55.9,8.4 17.9,21.7 55.9,35.1 93.8,21.7    "></polygon>			<path class="sub-icon" d="M35.2,34.6l0,11.8c13.8,5.3,27.6,5.3,41.4,0V34.6"></path>			<line class="sub-icon" x1="93.8" y1="27.5" x2="93.8" y2="35.7"></line>		</g>		<path class="sub-icon" d="M97.5,39.9c0-2-1.6-3.7-3.7-3.7c-2,0-3.7,1.6-3.7,3.7c0,2,1.6,3.7,3.7,3.7C95.9,43.6,97.5,41.9,97.5,39.9z"></path>	</g></g></svg>