<svg xmlns="http://www.w3.org/2000/svg" xmlns:xlink="http://www.w3.org/1999/xlink" x="0px" y="0px" viewBox="0 0 38 38" style="enable-background:new 0 0 38 38;" xml:space="preserve"><style type="text/css">	.st0{fill:none;stroke:currentcolor;stroke-width:1.5;stroke-linecap:round;stroke-linejoin:round;}</style><path class="st0" d="M17.7,24.6v7.2c0,1.3,1,2.3,2.3,2.3h13.2c1.3,0,2.3-1,2.3-2.3V6.2c0-1.3-1-2.3-2.3-2.3H20c-1.3,0-2.3,1-2.3,2.3  M20,8c0-0.9,0.7-1.6,1.6-1.6h10c0.9,0,1.6,0.7,1.6,1.6v19.1c0,0.9-0.7,1.6-1.6,1.6h-10c-0.9,0-1.6-0.7-1.6-1.6v-2.6 M28.2,31.1H25  M5.3,20.7c0-2-0.3-4.1,0.3-5.3 M5.6,15.4l-2-1.1C3.1,14,3,13.3,3.5,13l13-5.8c0.5-0.2,1.2-0.1,1.7,0.1L30.9,13 c0.6,0.2,0.6,1,0.1,1.2l-13,5.8c-0.5,0.2-1.2,0.1-1.7-0.1L5.6,15.4z M5.6,15.4l11.5-2.1 M5,25.2c-0.1,4.1,2.8,6.2,0,8.8l-2.5-1.9 C4.3,31.1,4.9,28.6,5,25.2 M26,17.2v3.1c0,2.3-3.8,4.2-8.6,4.2s-8.6-1.9-8.6-4.2v-2.9 M5.2,21.7c0.8,0,1.4,0.6,1.4,1.4 c0,0.8-0.6,1.4-1.4,1.4s-1.4-0.6-1.4-1.4C3.8,22.4,4.4,21.7,5.2,21.7z"></path></svg>