<svg xmlns="http://www.w3.org/2000/svg" xmlns:xlink="http://www.w3.org/1999/xlink" x="0px" y="0px" viewBox="0 0 38 38" style="enable-background:new 0 0 38 38;" xml:space="preserve"><style type="text/css">	.st0{fill:none;stroke:currentcolor;stroke-width:1.5;stroke-linecap:round;stroke-linejoin:round;}</style><g>	<path class="st0" d="M36,34.1H3"></path>	<path class="st0" d="M9.5,33.1c0.8,0,1.5,0.5,1.5,1c0,0.6-0.7,1-1.5,1S8,34.7,8,34.1C8,33.6,8.7,33.1,9.5,33.1z"></path>	<path class="st0" d="M26.3,4.9h7.8c1,0,1.9,0.9,1.9,2v21.2c0,1.1-0.9,2-1.9,2H3.9c-1,0-1.9-0.9-1.9-2V6.9c0-1.1,0.9-2,1.9-2h7.7"></path>	<path class="st0" d="M23.7,11.2c-0.7,2.1-2.5,3.7-4.2,3.7c-1.7-0.1-3.5-1.6-4.2-3.8l-0.3,0c-0.4,0.1-0.7-0.2-0.8-0.5L14,8.9  c-0.1-0.3,0.2-0.7,0.6-0.7l0.2,0c-0.1-0.3-0.2-0.6-0.2-0.9V6.5c0-1.7,1.5-3.1,3.3-3.1h0.4c0-0.1,0-0.1,0-0.2c0.2-0.5,1.6-0.5,3,0  c0.3,0.1,0.6,0.2,0.9,0.4c1.2,0.5,2.1,1.6,2.1,2.8v0.7c0,0.3-0.1,0.6-0.2,0.9l0.2,0C24.8,8.2,25,8.5,25,8.9l-0.3,1.9  c-0.1,0.3-0.4,0.6-0.8,0.5L23.7,11.2L23.7,11.2z"></path>	<path class="st0" d="M7.6,29.1L7,22.6V22c0-1.3,1.2-2,2.3-2.2c0.9-0.2,4.5-1,5.6-1.8l0.1,0"></path>	<path class="st0" d="M18,29.1l1-7.4L18.2,19h2.7L20,21.7l1,7.4"></path>	<path class="st0" d="M23,18L23,18c1.2,0.8,4.8,1.6,5.7,1.8c1,0.2,2.3,0.9,2.3,2.2v0.6l-0.6,6.5"></path>	<path class="st0" d="M18,8.9v1"></path>	<path class="st0" d="M21,8.9v1"></path>	<path class="st0" d="M20,13c-0.6,0-1.5,0-2,0"></path>	<path class="st0" d="M24,7.9c-0.1-0.7-1.3-2.7-2.7-3c-2.5,3-6.4-1-7.3,2.7"></path></g></svg>