<svg xmlns="http://www.w3.org/2000/svg" xmlns:xlink="http://www.w3.org/1999/xlink" x="0px" y="0px" viewBox="0 0 268 267" style="enable-background:new 0 0 268 267;" xml:space="preserve"><style type="text/css">	.st0-dot{fill:none;stroke:currentcolor;}</style><circle class="st0-dot" cx="4.7" cy="4.3" r="3.8"></circle><circle class="st0-dot" cx="30.5" cy="4.3" r="3.8"></circle><circle class="st0-dot" cx="56.3" cy="4.3" r="3.8"></circle><circle class="st0-dot" cx="82.2" cy="4.3" r="3.8"></circle><circle class="st0-dot" cx="108" cy="4.3" r="3.8"></circle><circle class="st0-dot" cx="133.9" cy="4.3" r="3.8"></circle><circle class="st0-dot" cx="159.7" cy="4.3" r="3.8"></circle><circle class="st0-dot" cx="185.5" cy="4.3" r="3.8"></circle><circle class="st0-dot" cx="211.4" cy="4.3" r="3.8"></circle><circle class="st0-dot" cx="237.2" cy="4.3" r="3.8"></circle><circle class="st0-dot" cx="263" cy="4.3" r="3.8"></circle><circle class="st0-dot" cx="4.7" cy="30.1" r="3.8"></circle><circle class="st0-dot" cx="30.5" cy="30.1" r="3.8"></circle><circle class="st0-dot" cx="56.3" cy="30.1" r="3.8"></circle><circle class="st0-dot" cx="82.2" cy="30.1" r="3.8"></circle><circle class="st0-dot" cx="108" cy="30.1" r="3.8"></circle><circle class="st0-dot" cx="133.9" cy="30.1" r="3.8"></circle><circle class="st0-dot" cx="159.7" cy="30.1" r="3.8"></circle><circle class="st0-dot" cx="185.5" cy="30.1" r="3.8"></circle><circle class="st0-dot" cx="211.4" cy="30.1" r="3.8"></circle><circle class="st0-dot" cx="237.2" cy="30.1" r="3.8"></circle><circle class="st0-dot" cx="263" cy="30.1" r="3.8"></circle><circle class="st0-dot" cx="4.7" cy="56" r="3.8"></circle><circle class="st0-dot" cx="30.5" cy="56" r="3.8"></circle><circle class="st0-dot" cx="56.3" cy="56" r="3.8"></circle><circle class="st0-dot" cx="82.2" cy="56" r="3.8"></circle><circle class="st0-dot" cx="108" cy="56" r="3.8"></circle><circle class="st0-dot" cx="133.9" cy="56" r="3.8"></circle><circle class="st0-dot" cx="159.7" cy="56" r="3.8"></circle><circle class="st0-dot" cx="185.5" cy="56" r="3.8"></circle><circle class="st0-dot" cx="211.4" cy="56" r="3.8"></circle><circle class="st0-dot" cx="237.2" cy="56" r="3.8"></circle><circle class="st0-dot" cx="263" cy="56" r="3.8"></circle><circle class="st0-dot" cx="4.7" cy="81.8" r="3.8"></circle><circle class="st0-dot" cx="30.5" cy="81.8" r="3.8"></circle><circle class="st0-dot" cx="56.3" cy="81.8" r="3.8"></circle><circle class="st0-dot" cx="82.2" cy="81.8" r="3.8"></circle><circle class="st0-dot" cx="108" cy="81.8" r="3.8"></circle><circle class="st0-dot" cx="133.9" cy="81.8" r="3.8"></circle><circle class="st0-dot" cx="159.7" cy="81.8" r="3.8"></circle><circle class="st0-dot" cx="185.5" cy="81.8" r="3.8"></circle><circle class="st0-dot" cx="211.4" cy="81.8" r="3.8"></circle><circle class="st0-dot" cx="237.2" cy="81.8" r="3.8"></circle><circle class="st0-dot" cx="263" cy="81.8" r="3.8"></circle><circle class="st0-dot" cx="4.7" cy="107.7" r="3.8"></circle><circle class="st0-dot" cx="30.5" cy="107.7" r="3.8"></circle><circle class="st0-dot" cx="56.3" cy="107.7" r="3.8"></circle><circle class="st0-dot" cx="82.2" cy="107.7" r="3.8"></circle><circle class="st0-dot" cx="108" cy="107.7" r="3.8"></circle><circle class="st0-dot" cx="133.9" cy="107.7" r="3.8"></circle><circle class="st0-dot" cx="159.7" cy="107.7" r="3.8"></circle><circle class="st0-dot" cx="185.5" cy="107.7" r="3.8"></circle><circle class="st0-dot" cx="211.4" cy="107.7" r="3.8"></circle><circle class="st0-dot" cx="237.2" cy="107.7" r="3.8"></circle><circle class="st0-dot" cx="263" cy="107.7" r="3.8"></circle><circle class="st0-dot" cx="4.7" cy="133.5" r="3.8"></circle><circle class="st0-dot" cx="30.5" cy="133.5" r="3.8"></circle><circle class="st0-dot" cx="56.3" cy="133.5" r="3.8"></circle><circle class="st0-dot" cx="82.2" cy="133.5" r="3.8"></circle><circle class="st0-dot" cx="108" cy="133.5" r="3.8"></circle><circle class="st0-dot" cx="133.9" cy="133.5" r="3.8"></circle><circle class="st0-dot" cx="159.7" cy="133.5" r="3.8"></circle><circle class="st0-dot" cx="185.5" cy="133.5" r="3.8"></circle><circle class="st0-dot" cx="211.4" cy="133.5" r="3.8"></circle><circle class="st0-dot" cx="237.2" cy="133.5" r="3.8"></circle><circle class="st0-dot" cx="263" cy="133.5" r="3.8"></circle><ellipse transform="matrix(7.462055e-03 -1 1 7.462055e-03 -154.7074 162.8118)" class="st0-dot" cx="4.7" cy="159.3" rx="3.8" ry="3.8"></ellipse><circle class="st0-dot" cx="30.5" cy="159.3" r="3.8"></circle><circle class="st0-dot" cx="56.3" cy="159.3" r="3.8"></circle><circle class="st0-dot" cx="82.2" cy="159.3" r="3.8"></circle><circle class="st0-dot" cx="108" cy="159.3" r="3.8"></circle><circle class="st0-dot" cx="133.9" cy="159.3" r="3.8"></circle><circle class="st0-dot" cx="159.7" cy="159.3" r="3.8"></circle><circle class="st0-dot" cx="185.5" cy="159.3" r="3.8"></circle><circle class="st0-dot" cx="211.4" cy="159.3" r="3.8"></circle><circle class="st0-dot" cx="237.2" cy="159.3" r="3.8"></circle><circle class="st0-dot" cx="263" cy="159.3" r="3.8"></circle><ellipse transform="matrix(7.462055e-03 -1 1 7.462055e-03 -180.5457 188.458)" class="st0-dot" cx="4.7" cy="185.2" rx="3.8" ry="3.8"></ellipse><circle class="st0-dot" cx="30.5" cy="185.2" r="3.8"></circle><circle class="st0-dot" cx="56.3" cy="185.2" r="3.8"></circle><circle class="st0-dot" cx="82.2" cy="185.2" r="3.8"></circle><circle class="st0-dot" cx="108" cy="185.2" r="3.8"></circle><circle class="st0-dot" cx="133.9" cy="185.2" r="3.8"></circle><circle class="st0-dot" cx="159.7" cy="185.2" r="3.8"></circle><circle class="st0-dot" cx="185.5" cy="185.2" r="3.8"></circle><circle class="st0-dot" cx="211.4" cy="185.2" r="3.8"></circle><circle class="st0-dot" cx="237.2" cy="185.2" r="3.8"></circle><circle class="st0-dot" cx="263" cy="185.2" r="3.8"></circle><ellipse transform="matrix(7.462055e-03 -1 1 7.462055e-03 -206.383 214.1032)" class="st0-dot" cx="4.7" cy="211" rx="3.8" ry="3.8"></ellipse><circle class="st0-dot" cx="30.5" cy="211" r="3.8"></circle><circle class="st0-dot" cx="56.3" cy="211" r="3.8"></circle><circle class="st0-dot" cx="82.2" cy="211" r="3.8"></circle><circle class="st0-dot" cx="108" cy="211" r="3.8"></circle><circle class="st0-dot" cx="133.9" cy="211" r="3.8"></circle><circle class="st0-dot" cx="159.7" cy="211" r="3.8"></circle><circle class="st0-dot" cx="185.5" cy="211" r="3.8"></circle><circle class="st0-dot" cx="211.4" cy="211" r="3.8"></circle><circle class="st0-dot" cx="237.2" cy="211" r="3.8"></circle><circle class="st0-dot" cx="263" cy="211" r="3.8"></circle><ellipse transform="matrix(7.462055e-03 -1 1 7.462055e-03 -232.2213 239.7494)" class="st0-dot" cx="4.7" cy="236.9" rx="3.8" ry="3.8"></ellipse><circle class="st0-dot" cx="30.5" cy="236.9" r="3.8"></circle><circle class="st0-dot" cx="56.3" cy="236.9" r="3.8"></circle><circle class="st0-dot" cx="82.2" cy="236.9" r="3.8"></circle><circle class="st0-dot" cx="108" cy="236.9" r="3.8"></circle><circle class="st0-dot" cx="133.9" cy="236.9" r="3.8"></circle><circle class="st0-dot" cx="159.7" cy="236.9" r="3.8"></circle><circle class="st0-dot" cx="185.5" cy="236.9" r="3.8"></circle><circle class="st0-dot" cx="211.4" cy="236.9" r="3.8"></circle><circle class="st0-dot" cx="237.2" cy="236.9" r="3.8"></circle><circle class="st0-dot" cx="263" cy="236.9" r="3.8"></circle><circle class="st0-dot" cx="4.7" cy="262.7" r="3.8"></circle><circle class="st0-dot" cx="30.5" cy="262.7" r="3.8"></circle><circle class="st0-dot" cx="56.3" cy="262.7" r="3.8"></circle><circle class="st0-dot" cx="82.2" cy="262.7" r="3.8"></circle><circle class="st0-dot" cx="108" cy="262.7" r="3.8"></circle><circle class="st0-dot" cx="133.9" cy="262.7" r="3.8"></circle><circle class="st0-dot" cx="159.7" cy="262.7" r="3.8"></circle><circle class="st0-dot" cx="185.5" cy="262.7" r="3.8"></circle><circle class="st0-dot" cx="211.4" cy="262.7" r="3.8"></circle><circle class="st0-dot" cx="237.2" cy="262.7" r="3.8"></circle><circle class="st0-dot" cx="263" cy="262.7" r="3.8"></circle></svg>